<svg width="194" height="193" viewBox="0 0 194 193" fill="none" xmlns="http://www.w3.org/2000/svg">
<path d="M106.732 42.0613C105.884 41.9097 101.793 41.2226 96.9999 41.2226C92.2064 41.2226 88.1161 41.9065 87.2677 42.0613C86.7806 42.1484 86.5935 41.671 86.9645 41.3936C87.2999 41.1452 96.9967 33.7645 96.9967 33.7645L107.026 41.3936C107.403 41.671 107.219 42.1484 106.732 42.0613ZM89.9774 89.9839C89.9774 89.9839 89.4645 90.1677 89.329 90.6194C91.3612 92.1807 92.7612 95.7323 96.9999 95.7323C101.239 95.7323 102.639 92.1807 104.668 90.6194C104.535 90.1645 104.023 89.9839 104.023 89.9839C104.023 89.9839 101.368 90.6097 96.9999 90.6097C92.6322 90.6097 89.9774 89.9839 89.9774 89.9839ZM96.9999 84.0065C95.8225 84.0065 95.5645 83.5613 94.7612 83.5645C93.9967 83.5677 92.5128 84.1774 92.1903 84.7355C92.2128 85.0194 92.3161 85.2742 92.5225 85.5C94.2386 85.7581 95.0128 86.7129 97.0032 86.7129C98.9935 86.7129 99.7644 85.7581 101.484 85.5C101.684 85.2742 101.793 85.0226 101.816 84.7355C101.497 84.1774 100.01 83.571 99.2419 83.5645C98.4354 83.5581 98.1741 84.0065 96.9999 84.0065ZM193.632 102.306C193.51 104.619 193.303 106.913 193.019 109.181C182.064 110.994 178.148 101.232 166.926 101.723C167.597 104.103 168.142 106.529 168.561 109.006C177.816 109 181.545 117.652 191.842 116.377C191.3 119.023 190.648 121.632 189.897 124.203C181.755 125.003 178.887 116.913 169.464 117.135C169.542 118.477 169.584 119.832 169.584 121.2L169.545 123.461L187.842 130.442C186.884 133.045 185.813 135.59 184.645 138.084C179.145 137.781 177.248 130.726 168.881 131.287C168.629 133.097 168.31 134.884 167.929 136.648C175.197 136.139 176.761 142.829 181.968 143.371C180.642 145.79 179.213 148.145 177.693 150.439C174.61 148.787 171.935 143.803 166.087 143.497C166.687 141.645 167.213 139.768 167.658 137.858C162.471 137.858 156.539 135.835 151.564 131.306C153.177 122.126 138.929 112.777 138.929 106.055C138.929 98.7516 142.623 94.7097 142.623 84.8645C142.623 77.5581 139.074 69.6323 133.723 64.2161C132.687 63.1645 131.626 62.3129 130.406 61.5484C135.323 67.6323 139.097 74.8452 139.097 83.2C139.097 92.471 134.784 97.3645 134.784 105.923C134.784 114.477 147.3 121.881 147.3 130.703C147.3 134.174 146.19 137.565 142.532 144.223C148.152 149.835 155.471 152.897 160.193 152.897C161.726 152.897 162.548 152.429 163.097 151.226C163.568 150.187 164.016 149.135 164.439 148.074C169.526 148.271 171.855 152.894 174.671 154.739C173.126 156.813 171.503 158.816 169.803 160.755C167.916 158.665 165.381 155.148 161.668 154.171C161.003 155.461 160.3 156.735 159.561 157.984C162.758 158.855 164.945 162.081 166.639 164.203C164.813 166.094 162.913 167.906 160.935 169.648C159.7 167.726 157.777 165.287 155.623 163.971C154.826 165.048 153.997 166.1 153.142 167.123C154.974 168.365 156.59 170.6 157.645 172.423C155.361 174.255 153 175.994 150.555 177.619C149.348 167.79 135.932 161.055 139.548 149.652C138.361 151.661 136.945 154.174 136.945 157.2C136.945 165.455 145.739 172.006 146.439 180.21C144.616 181.3 142.752 182.326 140.852 183.297C140.535 174.281 131.226 164.413 131.226 157.013C131.226 148.752 142.045 140.455 142.045 130.703C142.045 120.945 129.561 114.19 129.561 105.623C129.561 97.0613 134.871 92.1355 134.871 81.1613C134.871 73.1226 131.052 64.9871 125.152 59.7903C124.106 58.8678 123.077 58.1355 121.842 57.4936C127.406 64.1678 130.632 70.2226 130.632 79.4097C130.632 89.729 124.548 95.4581 124.548 105.561C124.548 115.668 136.8 121.287 136.8 130.706C136.8 140.126 125.397 148.065 125.397 157.742C125.397 166.545 135.448 175.332 135.597 185.777C133.4 186.735 131.161 187.61 128.884 188.403C130.161 177.852 118.848 166.968 118.848 158.358C118.848 148.945 130.677 140.855 130.677 130.706C130.677 120.552 118.652 115.832 118.652 105.41C118.652 94.9935 126.029 89.2258 126.029 77.7161C126.029 68.7452 121.6 60.6774 115.129 55.6774L114.719 55.3678C114.11 54.9161 113.606 55.4613 114.039 55.9968C118.619 61.7161 121.068 67.5 121.068 76.0645C121.068 86.5936 112.593 95.1484 112.593 105.348C112.593 117.387 123.974 120.829 123.974 130.706C123.974 140.581 111.771 148.481 111.771 158.965C111.771 168.687 123.319 179.477 121.339 190.7C119.023 191.3 116.674 191.823 114.29 192.248C116.458 178.274 105.129 168.239 105.129 159.097C105.129 149.2 117.768 140.377 117.768 130.706C117.768 121.584 108.697 118.603 107.503 109.271C107.339 107.997 106.316 107.052 104.906 107.287C103.064 107.623 100.703 108.835 96.9935 108.835C93.2838 108.835 90.9225 107.619 89.0774 107.287C87.6709 107.055 86.6483 108 86.4838 109.271C85.2935 118.603 76.2161 121.581 76.2161 130.706C76.2161 140.377 88.858 149.197 88.858 159.097C88.858 168.239 77.529 178.274 79.6935 192.248C77.3128 191.819 74.9612 191.297 72.6451 190.7C70.6645 179.477 82.2161 168.687 82.2161 158.965C82.2161 148.481 70.0096 140.581 70.0096 130.706C70.0096 120.829 81.3935 117.387 81.3935 105.348C81.3935 95.1484 72.9161 86.5968 72.9161 76.0645C72.9161 67.5032 75.3645 61.7194 79.9483 55.9968C80.3774 55.4613 79.8774 54.9161 79.2645 55.3678L78.858 55.6774C72.3935 60.6645 67.9677 68.7323 67.9677 77.7032C67.9677 89.2129 75.3451 94.9806 75.3451 105.397C75.3451 115.816 63.3193 120.535 63.3193 130.694C63.3193 140.842 75.1483 148.932 75.1483 158.345C75.1483 166.958 63.8354 177.839 65.1161 188.39C62.8354 187.597 60.5967 186.719 58.3999 185.765C58.5516 175.319 68.5967 166.529 68.5967 157.729C68.5967 148.052 57.1999 140.113 57.1999 130.694C57.1999 121.274 69.4451 115.655 69.4451 105.548C69.4451 95.4452 63.3645 89.7161 63.3645 79.3968C63.3645 70.2097 66.587 64.1548 72.1516 57.4807C70.9128 58.1226 69.887 58.8548 68.8451 59.7774C62.9451 64.9742 59.129 73.1097 59.129 81.1484C59.129 92.1226 64.4386 97.0484 64.4386 105.61C64.4386 114.177 51.9548 120.932 51.9548 130.69C51.9548 140.442 62.7741 148.742 62.7741 157C62.7741 164.403 53.458 174.271 53.1451 183.284C51.2451 182.313 49.3806 181.287 47.558 180.197C48.2612 171.994 57.0515 165.442 57.0515 157.187C57.0515 154.161 55.6386 151.648 54.4483 149.639C58.0645 161.042 44.6483 167.777 43.4419 177.606C40.9967 175.981 38.6322 174.242 36.3516 172.41C37.4032 170.59 39.0193 168.352 40.8548 167.11C39.9967 166.09 39.1709 165.035 38.3741 163.958C36.2161 165.274 34.2903 167.713 33.058 169.635C31.087 167.897 29.1838 166.081 27.358 164.19C29.0516 162.068 31.2386 158.842 34.4354 157.971C33.6967 156.723 32.9935 155.452 32.329 154.158C28.6161 155.135 26.0774 158.652 24.1935 160.742C22.4935 158.8 20.8677 156.797 19.3257 154.726C22.1419 152.881 24.4709 148.255 29.5548 148.061C29.9806 149.119 30.429 150.171 30.8999 151.213C31.4483 152.416 32.2741 152.884 33.8032 152.884C38.5257 152.884 45.8419 149.823 51.4645 144.21C47.8064 137.552 46.6967 134.161 46.6967 130.69C46.6967 121.871 59.2128 114.468 59.2128 105.91C59.2128 97.3516 54.8999 92.4581 54.8999 83.1871C54.8999 74.8323 58.6741 67.6194 63.5903 61.5355C62.3709 62.3 61.3096 63.1516 60.2741 64.2032C54.9225 69.6226 51.3741 77.5452 51.3741 84.8516C51.3741 94.6968 55.0709 98.7387 55.0709 106.042C55.0709 112.765 40.8193 122.113 42.4322 131.294C37.458 135.823 31.5257 137.845 26.3354 137.845C26.787 139.755 27.3128 141.632 27.9064 143.484C22.0612 143.794 19.387 148.777 16.2999 150.426C14.7774 148.132 13.3516 145.777 12.0257 143.358C17.229 142.816 18.7967 136.126 26.0677 136.635C25.687 134.871 25.3645 133.081 25.1128 131.274C16.7451 130.713 14.8483 137.771 9.34833 138.071C8.18058 135.577 7.10962 133.032 6.15155 130.429L24.4516 123.448L24.4128 121.187C24.4128 119.819 24.4548 118.465 24.529 117.123C15.1064 116.903 12.2386 124.99 4.09671 124.19C3.34833 121.619 2.69349 119.013 2.15478 116.365C12.4451 117.639 16.1774 108.987 25.4354 108.994C25.8548 106.516 26.3999 104.09 27.0677 101.71C15.8451 101.223 11.929 110.984 0.977359 109.168C0.690263 106.9 0.487037 104.606 0.364456 102.294C13.0967 103.716 17.8709 93.2484 29.4645 94.529C30.558 91.7581 31.829 89.0774 33.2612 86.4968C18.7257 83.9419 13.7903 96.0968 0.26123 94.229C1.72252 42.0645 44.4741 0.21936 96.9999 0.21936C149.526 0.21936 192.277 42.0645 193.739 94.2419C180.206 96.1097 175.271 83.9581 160.739 86.5097C162.168 89.0903 163.439 91.771 164.535 94.5419C176.123 93.2581 180.897 103.729 193.632 102.306ZM55.3999 61.7161C48.2741 58.8032 39.6483 59.4742 32.2806 64.2065C31.1386 57.3516 27.4193 51.2613 22.1225 47.5871C21.3903 47.0807 20.629 47.5613 20.6967 48.4097C21.8161 62.8936 13.3483 75.471 2.93542 86.5258C13.6677 89.7516 22.8032 75.9323 36.7225 80.7548C41.7161 73.3194 48.058 66.8581 55.3999 61.7161ZM96.9999 52.9548C88.0161 52.9548 80.4903 58.0355 78.5193 64.6C78.3677 65.1032 78.5741 65.429 79.1548 65.1678C80.7709 64.4419 82.6096 64.0936 84.6064 64.0936C88.2709 64.0936 91.4999 65.4387 93.4096 67.7807C94.2548 70.5677 94.3257 74.6032 93.3709 76.9065C91.8612 76.5678 91.3193 75.4 89.8451 75.4C88.3709 75.4 87.229 76.4355 84.729 76.4355C82.2322 76.4355 81.9386 75.2548 80.2967 75.2548C78.3645 75.2548 78.0096 77.2452 78.0096 79.4903C78.0096 89.5 87.2096 103.274 96.9967 103.274C106.781 103.274 115.981 89.5 115.981 79.4903C115.981 77.2452 115.519 75.3226 113.5 75.0613C112.493 75.7871 111.568 76.4355 109.264 76.4355C106.764 76.4355 106.074 75.4 104.603 75.4C102.826 75.4 103.003 79.1484 100.893 79.3581C99.487 75.9774 99.4193 71.6419 100.587 67.7807C102.5 65.4387 105.726 64.0936 109.39 64.0936C111.387 64.0936 113.239 64.4452 114.839 65.1678C115.423 65.429 115.626 65.1 115.474 64.6C113.506 58.0355 105.984 52.9548 96.9999 52.9548ZM111.303 67.3161C109.148 67.3161 106.623 67.9774 105.035 69.7452C104.871 70.2258 104.871 70.9419 105.103 71.4194C109.01 70.0807 112.455 70.029 114.119 71.8903C115.006 71.0839 115.29 70.3581 115.29 69.5161C115.29 68.2161 113.968 67.3161 111.303 67.3161ZM79.8806 71.8903C81.7645 70.0032 85.7354 70.0839 89.8612 71.6065C90.0419 69.5548 86.3677 67.3129 82.6967 67.3129C80.029 67.3129 78.7096 68.2129 78.7096 69.5161C78.7096 70.3581 78.9935 71.0871 79.8806 71.8903ZM141.797 38.0065C134.703 38.5129 128.542 40.9484 123.558 45.0065C125.674 39.0065 128.361 33.7581 131.768 28.671C122.735 29.629 115.184 32.9323 109.674 38.5774L105.361 27.271L114.935 18.8161L102.116 17.9097L96.9999 5.9871L91.8806 17.9097L79.0612 18.8161L88.6354 27.271L84.3257 38.5774C78.8128 32.9323 71.2612 29.629 62.2354 28.671C65.6354 33.7613 68.3225 39.0097 70.4386 45.0065C65.458 40.9452 59.2967 38.5097 52.2032 38.0065C56.458 43.4774 60.229 49.3097 63.0225 55.5807C63.3386 56.2871 64.0161 56.5194 64.7483 56.1548C74.4645 51.3258 85.4128 48.6097 96.9967 48.6097C108.581 48.6097 119.526 51.329 129.248 56.1548C129.981 56.5194 130.658 56.2871 130.971 55.5807C133.768 49.3097 137.539 43.4774 141.797 38.0065ZM157.284 80.7613C171.197 75.9387 180.335 89.7548 191.068 86.5323C180.655 75.4774 172.19 62.9 173.31 48.4161C173.377 47.5677 172.613 47.0839 171.884 47.5936C166.584 51.2677 162.864 57.3581 161.726 64.2129C154.355 59.4807 145.732 58.8065 138.606 61.7226C145.939 66.8581 152.284 73.3194 157.284 80.7613Z" fill="#006241"/>
</svg>
